<svg xmlns="http://www.w3.org/2000/svg" width="270.25067138671875" height="241.4927215576172" viewBox="-132.15603637695312 -129.16078186035156 270.25067138671875 241.4927215576172"><title>Neo4j Graph Visualization</title><desc>Created using Neo4j (http://www.neo4j.com/)</desc><g class="layer relationships"><g class="relationship" transform="translate(94.59150009968496 83.33194438560686) rotate(274.53406991837875)"><path class="outline" fill="#A5ABB6" stroke="none" d="M 21.40063509461097,12.933012701892217 L 21.90063509461097,12.06698729810778 A 97.76092204122638 97.76092204122638 0 0 0 57.5967586173467,24.27134761642712 L 57.46189555322464,25.262211862394054 A 98.76092204122638 98.76092204122638 0 0 1 21.40063509461097,12.933012701892217 Z M 79.5334145912569,25.775882093877442 L 79.44479331985586,24.779816699309762 A 97.76092204122638 97.76092204122638 0 0 0 115.67002583150074,14.249281346962238 L 114.29251438483045,11.584236841838099 L 122.11804825123544,11.479262055585618 L 117.50670776039443,17.80267402046109 L 116.12919631372415,15.13762951533695 A 98.76092204122638 98.76092204122638 0 0 1 79.5334145912569,25.775882093877442"/><text text-anchor="middle" pointer-events="none" font-size="8px" fill="#000000" x="68.49488976284336" y="28.637867527332915" font-family="sans-serif">road</text></g><g class="relationship" transform="translate(106.0008013632966 -60.543137961894814) rotate(195.70129675594154)"><path class="outline" fill="#A5ABB6" stroke="none" d="M 25 0.5 L 60.02934455651395 0.5 L 60.02934455651395 -0.5 L 25 -0.5 Z M 79.36528205651395 0.5 L 114.3946266130279 0.5 L 114.3946266130279 3.5 L 121.3946266130279 0 L 114.3946266130279 -3.5 L 114.3946266130279 -0.5 L 79.36528205651395 -0.5 Z"/><text text-anchor="middle" pointer-events="none" font-size="8px" fill="#000000" x="69.69731330651395" y="3" transform="rotate(180 69.69731330651395 0)" font-family="sans-serif">trek</text></g><g class="relationship" transform="translate(-34.93120078171909 -100.16077888819365) rotate(478.41010166527525)"><path class="outline" fill="#A5ABB6" stroke="none" d="M 25 0.5 L 58.53001729076901 0.5 L 58.53001729076901 -0.5 L 25 -0.5 Z M 77.86595479076901 0.5 L 111.39597208153802 0.5 L 111.39597208153802 3.5 L 118.39597208153802 0 L 111.39597208153802 -3.5 L 111.39597208153802 -0.5 L 77.86595479076901 -0.5 Z"/><text text-anchor="middle" pointer-events="none" font-size="8px" fill="#000000" x="68.19798604076901" y="3" transform="rotate(180 68.19798604076901 0)" font-family="sans-serif">trek</text></g><g class="relationship" transform="translate(94.59150009968496 83.33194438560686) rotate(274.53406991837875)"><path class="outline" fill="#A5ABB6" stroke="none" d="M 25 0.5 L 58.99540748030162 0.5 L 58.99540748030162 -0.5 L 25 -0.5 Z M 78.33134498030162 0.5 L 112.32675246060325 0.5 L 112.32675246060325 3.5 L 119.32675246060325 0 L 112.32675246060325 -3.5 L 112.32675246060325 -0.5 L 78.33134498030162 -0.5 Z"/><text text-anchor="middle" pointer-events="none" font-size="8px" fill="#000000" x="68.66337623030162" y="3" font-family="sans-serif">trek</text></g><g class="relationship" transform="translate(94.59150009968496 83.33194438560686) rotate(274.53406991837875)"><path class="outline" fill="#A5ABB6" stroke="none" d="M 21.40063509461097,-12.933012701892217 L 21.90063509461097,-12.06698729810778 A 97.76092204122638 97.76092204122638 0 0 1 38.42215282981625,-19.653730504171236 L 38.09115203103325,-20.597360978035354 A 98.76092204122638 98.76092204122638 0 0 0 21.40063509461097,-12.933012701892217 Z M 99.10019835262976,-22.01722387431336 L 98.81345434850246,-21.059216632118904 A 97.76092204122638 97.76092204122638 0 0 1 115.67002583150074,-14.249281346962238 L 114.29251438483045,-11.584236841838099 L 122.11804825123544,-11.479262055585618 L 117.50670776039443,-17.80267402046109 L 116.12919631372415,-15.13762951533695 A 98.76092204122638 98.76092204122638 0 0 0 99.10019835262976,-22.01722387431336"/><text text-anchor="middle" pointer-events="none" font-size="8px" fill="#000000" x="68.49488976284336" y="-22.637867527332915" font-family="sans-serif">PublicTransport</text></g></g><g class="layer nodes"><g class="node" aria-label="graph-node199" transform="translate(94.59150009968496,83.33194438560686)"><circle class="outline" cx="0" cy="0" r="25" fill="#57C7E3" stroke="#23b3d7" stroke-width="2px"/><text class="caption" text-anchor="middle" pointer-events="none" x="0" y="5" font-size="10px" fill="#2A2C34" font-family="sans-serif"> Darjeeling</text></g><g class="node" aria-label="graph-node201" transform="translate(-103.15603459030277,25.965256730945534)"><circle class="outline" cx="0" cy="0" r="25" fill="#D9C8AE" stroke="#c0a378" stroke-width="2px"/><text class="caption" text-anchor="middle" pointer-events="none" x="0" y="5" font-size="10px" fill="#2A2C34" font-family="sans-serif"> Sandakp…</text></g><g class="node" aria-label="graph-node198" transform="translate(106.0008013632966,-60.543137961894814)"><circle class="outline" cx="0" cy="0" r="25" fill="#57C7E3" stroke="#23b3d7" stroke-width="2px"/><text class="caption" text-anchor="middle" pointer-events="none" x="0" y="5" font-size="10px" fill="#2A2C34" font-family="sans-serif"> Rimbik</text></g><g class="node" aria-label="graph-node200" transform="translate(-34.93120078171909,-100.16077888819365)"><circle class="outline" cx="0" cy="0" r="25" fill="#F16667" stroke="#eb2728" stroke-width="2px"/><text class="caption" text-anchor="middle" pointer-events="none" x="0" y="5" font-size="10px" fill="#FFFFFF" font-family="sans-serif"> BhikeBh…</text></g></g></svg>