<svg xmlns="http://www.w3.org/2000/svg" width="518.0136108398438" height="288.7776794433594" viewBox="-362.1647033691406 -150.88577270507812 518.0136108398438 288.7776794433594"><title>Neo4j Graph Visualization</title><desc>Created using Neo4j (http://www.neo4j.com/)</desc><g class="layer relationships"><g class="relationship" transform="translate(-333.16466197781097 21.189643844147298) rotate(353.1668643156271)"><path class="outline" fill="#A5ABB6" stroke="none" d="M 5.987513214418485,-24.277555179777966 L 6.953439040707552,-24.018736134675446 A 114.74341340601804 114.74341340601804 0 0 1 96.9891734827667,-107.16376031076231 L 96.80791783291268,-108.14719632260854 A 115.74341340601804 115.74341340601804 0 0 0 5.987513214418485,-24.277555179777966 Z M 132.29919272397655,-109.15098596305451 L 132.173810839593,-108.15887740897969 A 114.74341340601804 114.74341340601804 0 0 1 226.76499416713335,-30.235603873673764 L 223.91573444530397,-29.296604918636607 L 229.4308683491916,-23.74383101524478 L 230.5640071295725,-31.48760248038997 L 227.71474740774312,-30.548603525352814 A 115.74341340601804 115.74341340601804 0 0 0 132.29919272397655,-109.15098596305451"/><text text-anchor="middle" pointer-events="none" font-size="8px" fill="#000000" x="114.52897157288643" y="-106.51830418971925" font-family="sans-serif">FLY_TO</text></g><g class="relationship" transform="translate(-97.59406253112807 -7.038632943500851) rotate(352.00394461353176)"><path class="outline" fill="#A5ABB6" stroke="none" d="M 5.987513214418485,24.277555179777966 L 6.953439040707552,24.018736134675446 A 109.21086827816328 109.21086827816328 0 0 0 91.67381881378851,102.97066800932264 L 91.48364343348341,103.95241814287283 A 110.21086827816328 110.21086827816328 0 0 1 5.987513214418485,24.277555179777966 Z M 126.96677480117634,105.00258158486315 L 126.83499344597931,104.01130277725025 A 109.21086827816328 109.21086827816328 0 0 0 216.07633835072272,30.207965080189037 L 213.2295529685739,29.261491103798868 L 218.7592418593246,23.72321151790683 L 219.87205219358782,31.469930382042598 L 217.025266811439,30.52345640565243 A 110.21086827816328 110.21086827816328 0 0 1 126.96677480117634,105.00258158486315"/><text text-anchor="middle" pointer-events="none" font-size="8px" fill="#000000" x="109.19744102373679" y="108.41573373623211" font-family="sans-serif">FLY_TO</text></g><g class="relationship" transform="translate(-333.16466197781097 21.189643844147298) rotate(353.1668643156271)"><path class="outline" fill="#A5ABB6" stroke="none" d="M 17.324116139070416,-18.03122292025696 L 18.031222920256962,-17.324116139070412 A 141.07606542606015 141.07606542606015 0 0 1 97.29376321220317,-57.147931155560485 L 97.14849900900862,-58.13732405591415 A 142.07606542606015 142.07606542606015 0 0 0 17.324116139070416,-18.03122292025696 Z M 132.66542142057577,-58.86315282134481 L 132.56070036196664,-57.86865118741767 A 141.07606542606015 141.07606542606015 0 0 1 213.38407309205783,-21.3163741511946 L 211.35119088718758,-19.110157946666614 L 218.87072460343484,-16.940685040585343 L 216.09458269855148,-24.257995757231914 L 214.06170049368123,-22.051779552703927 A 142.07606542606015 142.07606542606015 0 0 0 132.66542142057577,-58.86315282134481"/><text text-anchor="middle" pointer-events="none" font-size="8px" fill="#000000" x="114.89440126232549" y="-56.11478468090465" font-family="sans-serif">FLY_TO</text></g><g class="relationship" transform="translate(-333.16466197781097 21.189643844147298) rotate(353.1668643156271)"><path class="outline" fill="#A5ABB6" stroke="none" d="M 24.018736134675446,-6.953439040707552 L 24.277555179777966,-5.987513214418485 A 361.29300387969363 361.29300387969363 0 0 1 97.39393132387804,-17.722270802248374 L 97.33748646083538,-18.720676520098607 A 362.29300387969363 362.29300387969363 0 0 0 24.018736134675446,-6.953439040707552 Z M 132.86349521754212,-18.98444324063928 L 132.82188130391432,-17.98530947472375 A 361.29300387969363 361.29300387969363 0 0 1 206.10443920461813,-7.337506714498953 L 205.37109502570993,-4.428519551367863 L 213.0142999484087,-6.111201490901676 L 207.08223144316239,-11.216156265340405 L 206.3488872642542,-8.307169102209317 A 362.29300387969363 362.29300387969363 0 0 0 132.86349521754212,-18.98444324063928"/><text text-anchor="middle" pointer-events="none" font-size="8px" fill="#000000" x="115.10096792648142" y="-15.788302314810778" font-family="sans-serif">FLY_TO</text></g><g class="relationship" transform="translate(-97.59406253112807 -7.038632943500851) rotate(533.1668643156271)"><path class="outline" fill="#A5ABB6" stroke="none" d="M 24.018736134675446,-6.953439040707552 L 24.277555179777966,-5.987513214418485 A 361.29300387969363 361.29300387969363 0 0 1 97.39393132387804,-17.722270802248374 L 97.33748646083538,-18.720676520098607 A 362.29300387969363 362.29300387969363 0 0 0 24.018736134675446,-6.953439040707552 Z M 132.86349521754212,-18.98444324063928 L 132.82188130391432,-17.98530947472375 A 361.29300387969363 361.29300387969363 0 0 1 206.10443920461813,-7.337506714498953 L 205.37109502570993,-4.428519551367863 L 213.0142999484087,-6.111201490901676 L 207.08223144316239,-11.216156265340405 L 206.3488872642542,-8.307169102209317 A 362.29300387969363 362.29300387969363 0 0 0 132.86349521754212,-18.98444324063928"/><text text-anchor="middle" pointer-events="none" font-size="8px" fill="#000000" x="115.10096792648142" y="-15.788302314810778" transform="rotate(180 115.10096792648142 -18.788302314810778)" font-family="sans-serif">FLY_TO</text></g><g class="relationship" transform="translate(-97.59406253112807 -7.038632943500851) rotate(352.00394461353176)"><path class="outline" fill="#A5ABB6" stroke="none" d="M 10.396609043987748,22.74116356711926 L 11.29757791189017,22.307279828001697 A 112.26299033575769 112.26299033575769 0 0 0 91.81176014336548,83.9491313079985 L 91.6279838425831,84.93209940070076 A 113.26299033575769 113.26299033575769 0 0 1 10.396609043987748,22.74116356711926 Z M 127.11719710419453,85.90658180054328 L 126.98763880948012,84.91500999362725 A 112.26299033575769 112.26299033575769 0 0 0 210.76314314750385,27.784315378604152 L 208.13573836437607,26.336301530052502 L 214.57974292464564,21.895039859397976 L 214.26634952500754,29.715000510006348 L 211.63894474187975,28.2669866614547 A 113.26299033575769 113.26299033575769 0 0 1 127.11719710419453,85.90658180054328"/><text text-anchor="middle" pointer-events="none" font-size="8px" fill="#000000" x="109.34789541883211" y="89.31869810344801" font-family="sans-serif">FLY_TO</text></g><g class="relationship" transform="translate(-97.59406253112807 -7.038632943500851) rotate(352.00394461353176)"><path class="outline" fill="#A5ABB6" stroke="none" d="M 14.44320574945421,20.411854586953456 L 15.247803529220876,19.818034401379958 A 120.79977864344055 120.79977864344055 0 0 0 91.9228485084453,67.12883208014728 L 91.75297908530537,68.11429865953093 A 121.79977864344055 121.79977864344055 0 0 1 14.44320574945421,20.411854586953456 Z M 127.25390190026951,68.98061112098719 L 127.13230180507074,67.98803194689194 A 120.79977864344055 120.79977864344055 0 0 0 206.02371616097824,24.473450017475745 L 203.6996884187961,22.576374622672546 L 210.8375633725494,19.366897851517916 L 209.1224198172211,27.002883877213343 L 206.79839207503895,25.105808482410144 A 121.79977864344055 121.79977864344055 0 0 1 127.25390190026951,68.98061112098719"/><text text-anchor="middle" pointer-events="none" font-size="8px" fill="#000000" x="109.48389622818088" y="72.3483661782096" font-family="sans-serif">FLY_TO</text></g><g class="relationship" transform="translate(-97.59406253112807 -7.038632943500851) rotate(352.00394461353176)"><path class="outline" fill="#A5ABB6" stroke="none" d="M 17.9862104268602,17.370844380187897 L 18.666383164631117,16.637792508358068 A 137.87182115639445 137.87182115639445 0 0 0 92.00489222183235,51.91912470776492 L 91.8566520315688,52.90807609483642 A 138.87182115639445 138.87182115639445 0 0 1 17.9862104268602,17.370844380187897 Z M 127.37202971531815,53.63763724103538 L 127.26452775870115,52.6434323681226 A 137.87182115639445 137.87182115639445 0 0 0 201.99006365586095,20.403649531069266 L 200.04157935320757,18.122551347668693 L 207.6373734675712,16.237369188778157 L 204.58804272606545,23.445113775603364 L 202.63955842341207,21.16401559220279 A 138.87182115639445 138.87182115639445 0 0 1 127.37202971531815,53.63763724103538"/><text text-anchor="middle" pointer-events="none" font-size="8px" fill="#000000" x="109.60118621995022" y="56.91323135009378" font-family="sans-serif">FLY_TO</text></g><g class="relationship" transform="translate(-97.59406253112807 -7.038632943500851) rotate(352.00394461353176)"><path class="outline" fill="#A5ABB6" stroke="none" d="M 20.90208894244944,13.724164012497553 L 21.434121018964774,12.87743981326927 A 171.05907748862973 171.05907748862973 0 0 0 92.05826962739195,37.87770788383227 L 91.9391016306161,38.87058198891529 A 172.05907748862973 172.05907748862973 0 0 1 20.90208894244944,13.724164012497553 Z M 127.46673047507296,39.43948950991407 L 127.37941341239704,38.44330893864918 A 171.05907748862973 171.05907748862973 0 0 0 198.76781089910793,15.717102160029523 L 197.25386422738907,13.127128130199996 L 205.06340808066332,12.616222264323781 L 200.78640646139976,19.170400866468892 L 199.2724597896809,16.580426836639365 A 172.05907748862973 172.05907748862973 0 0 1 127.46673047507296,39.43948950991407"/><text text-anchor="middle" pointer-events="none" font-size="8px" fill="#000000" x="109.69619647776797" y="42.5746655846701" font-family="sans-serif">FLY_TO</text></g><g class="relationship" transform="translate(-97.59406253112807 -7.038632943500851) rotate(352.00394461353176)"><path class="outline" fill="#A5ABB6" stroke="none" d="M 23.08917320392191,9.598962483481976 L 23.454514228288303,8.668088734837774 A 243.576595724724 243.576595724724 0 0 0 92.08556889996383,24.653424043498717 L 92.00199162415248,25.649925342528434 A 244.576595724724 244.576595724724 0 0 1 23.08917320392191,9.598962483481976 Z M 127.53342272031043,26.039643118735057 L 127.47172268129583,25.041548381154684 A 243.576595724724 243.576595724724 0 0 0 196.43688661877056,10.565403405573191 L 195.40238021457165,7.7494139702820295 L 203.1799463684831,8.620886701657584 L 197.8162284910358,14.320055985961405 L 196.78172208683688,11.504066550670244 A 244.576595724724 244.576595724724 0 0 1 127.53342272031043,26.039643118735057"/><text text-anchor="middle" pointer-events="none" font-size="8px" fill="#000000" x="109.76610403808148" y="28.990945514682522" font-family="sans-serif">FLY_TO</text></g><g class="relationship" transform="translate(-97.59406253112807 -7.038632943500851) rotate(533.1668643156271)"><path class="outline" fill="#A5ABB6" stroke="none" d="M 17.324116139070416,-18.03122292025696 L 18.031222920256962,-17.324116139070412 A 141.07606542606015 141.07606542606015 0 0 1 97.29376321220317,-57.147931155560485 L 97.14849900900862,-58.13732405591415 A 142.07606542606015 142.07606542606015 0 0 0 17.324116139070416,-18.03122292025696 Z M 132.66542142057577,-58.86315282134481 L 132.56070036196664,-57.86865118741767 A 141.07606542606015 141.07606542606015 0 0 1 213.38407309205783,-21.3163741511946 L 211.35119088718758,-19.110157946666614 L 218.87072460343484,-16.940685040585343 L 216.09458269855148,-24.257995757231914 L 214.06170049368123,-22.051779552703927 A 142.07606542606015 142.07606542606015 0 0 0 132.66542142057577,-58.86315282134481"/><text text-anchor="middle" pointer-events="none" font-size="8px" fill="#000000" x="114.89440126232549" y="-56.11478468090465" transform="rotate(180 114.89440126232549 -59.11478468090465)" font-family="sans-serif">FLY_TO</text></g><g class="relationship" transform="translate(-97.59406253112807 -7.038632943500851) rotate(352.00394461353176)"><path class="outline" fill="#A5ABB6" stroke="none" d="M 24.471206027250748,5.139073415689509 L 24.657117634413662,4.15650694245622 A 472.1917094218744 472.1917094218744 0 0 0 92.09062722109624,11.949654994116372 L 92.04752521486691,12.948725670824956 A 473.1917094218744 473.1917094218744 0 0 1 24.471206027250748,5.139073415689509 Z M 127.56835815175336,13.146675555705826 L 127.536393684438,12.147186549848698 A 472.1917094218744 472.1917094218744 0 0 0 195.05257132809754,5.106083786637072 L 194.52772390411036,2.1523513712795106 L 202.03208820126306,4.373728533226559 L 195.7523678934138,9.044393673780487 L 195.22752046942662,6.090661258422925 A 473.1917094218744 473.1917094218744 0 0 1 127.56835815175336,13.146675555705826"/><text text-anchor="middle" pointer-events="none" font-size="8px" fill="#000000" x="109.80886992294967" y="15.881133983631173" font-family="sans-serif">FLY_TO</text></g><g class="relationship" transform="translate(-97.59406253112807 -7.038632943500851) rotate(352.00394461353176)"><path class="outline" fill="#A5ABB6" stroke="none" d="M 25 0.5 L 92.07716874795467 0.5 L 92.07716874795467 -0.5 L 25 -0.5 Z M 127.56935624795467 0.5 L 194.64652499590935 0.5 L 194.64652499590935 3.5 L 201.64652499590935 0 L 194.64652499590935 -3.5 L 194.64652499590935 -0.5 L 127.56935624795467 -0.5 Z"/><text text-anchor="middle" pointer-events="none" font-size="8px" fill="#000000" x="109.82326249795467" y="3" font-family="sans-serif">FLY_TO</text></g><g class="relationship" transform="translate(-97.59406253112807 -7.038632943500851) rotate(352.00394461353176)"><path class="outline" fill="#A5ABB6" stroke="none" d="M 24.471206027250748,-5.139073415689509 L 24.657117634413662,-4.15650694245622 A 472.1917094218744 472.1917094218744 0 0 1 92.09062722109613,-11.949654994116315 L 92.0475252148668,-12.9487256708249 A 473.1917094218744 473.1917094218744 0 0 0 24.471206027250748,-5.139073415689509 Z M 127.56835815175343,-13.146675555705826 L 127.53639368443807,-12.147186549848698 A 472.1917094218744 472.1917094218744 0 0 1 195.05257132809754,-5.106083786637072 L 194.52772390411036,-2.1523513712795106 L 202.03208820126306,-4.373728533226559 L 195.7523678934138,-9.044393673780487 L 195.22752046942662,-6.090661258422925 A 473.1917094218744 473.1917094218744 0 0 0 127.56835815175343,-13.146675555705826"/><text text-anchor="middle" pointer-events="none" font-size="8px" fill="#000000" x="109.80886992294964" y="-9.881133983631173" font-family="sans-serif">FLY_TO</text></g><g class="relationship" transform="translate(-97.59406253112807 -7.038632943500851) rotate(352.00394461353176)"><path class="outline" fill="#A5ABB6" stroke="none" d="M 23.08917320392191,-9.598962483481976 L 23.454514228288303,-8.668088734837774 A 243.576595724724 243.576595724724 0 0 1 92.08556889996373,-24.653424043498717 L 92.0019916241524,-25.649925342528434 A 244.576595724724 244.576595724724 0 0 0 23.08917320392191,-9.598962483481976 Z M 127.53342272031037,-26.039643118735057 L 127.47172268129577,-25.041548381154684 A 243.576595724724 243.576595724724 0 0 1 196.43688661877056,-10.565403405573191 L 195.40238021457165,-7.7494139702820295 L 203.1799463684831,-8.620886701657584 L 197.8162284910358,-14.320055985961405 L 196.78172208683688,-11.504066550670244 A 244.576595724724 244.576595724724 0 0 0 127.53342272031037,-26.039643118735057"/><text text-anchor="middle" pointer-events="none" font-size="8px" fill="#000000" x="109.76610403808141" y="-22.990945514682522" font-family="sans-serif">FLY_TO</text></g><g class="relationship" transform="translate(-97.59406253112807 -7.038632943500851) rotate(352.00394461353176)"><path class="outline" fill="#A5ABB6" stroke="none" d="M 20.90208894244944,-13.724164012497553 L 21.434121018964774,-12.87743981326927 A 171.05907748862973 171.05907748862973 0 0 1 92.05826962739192,-37.87770788383227 L 91.93910163061607,-38.87058198891529 A 172.05907748862973 172.05907748862973 0 0 0 20.90208894244944,-13.724164012497553 Z M 127.4667304750729,-39.43948950991407 L 127.37941341239699,-38.44330893864918 A 171.05907748862973 171.05907748862973 0 0 1 198.76781089910793,-15.717102160029523 L 197.25386422738907,-13.127128130199996 L 205.06340808066332,-12.616222264323781 L 200.78640646139976,-19.170400866468892 L 199.2724597896809,-16.580426836639365 A 172.05907748862973 172.05907748862973 0 0 0 127.4667304750729,-39.43948950991407"/><text text-anchor="middle" pointer-events="none" font-size="8px" fill="#000000" x="109.69619647776793" y="-36.5746655846701" font-family="sans-serif">FLY_TO</text></g><g class="relationship" transform="translate(-97.59406253112807 -7.038632943500851) rotate(352.00394461353176)"><path class="outline" fill="#A5ABB6" stroke="none" d="M 17.9862104268602,-17.370844380187897 L 18.666383164631117,-16.637792508358068 A 137.87182115639445 137.87182115639445 0 0 1 92.00489222183234,-51.919124707764894 L 91.85665203156879,-52.90807609483639 A 138.87182115639445 138.87182115639445 0 0 0 17.9862104268602,-17.370844380187897 Z M 127.37202971531816,-53.63763724103538 L 127.26452775870115,-52.6434323681226 A 137.87182115639445 137.87182115639445 0 0 1 201.99006365586095,-20.403649531069266 L 200.04157935320757,-18.122551347668693 L 207.6373734675712,-16.237369188778157 L 204.58804272606545,-23.445113775603364 L 202.63955842341207,-21.16401559220279 A 138.87182115639445 138.87182115639445 0 0 0 127.37202971531816,-53.63763724103538"/><text text-anchor="middle" pointer-events="none" font-size="8px" fill="#000000" x="109.60118621995021" y="-50.91323135009378" font-family="sans-serif">FLY_TO</text></g><g class="relationship" transform="translate(-97.59406253112807 -7.038632943500851) rotate(352.00394461353176)"><path class="outline" fill="#A5ABB6" stroke="none" d="M 14.44320574945421,-20.411854586953456 L 15.247803529220876,-19.818034401379958 A 120.79977864344055 120.79977864344055 0 0 1 91.92284850844528,-67.12883208014728 L 91.75297908530536,-68.11429865953093 A 121.79977864344055 121.79977864344055 0 0 0 14.44320574945421,-20.411854586953456 Z M 127.25390190026948,-68.98061112098722 L 127.13230180507071,-67.98803194689194 A 120.79977864344055 120.79977864344055 0 0 1 206.02371616097824,-24.473450017475745 L 203.6996884187961,-22.576374622672546 L 210.8375633725494,-19.366897851517916 L 209.1224198172211,-27.002883877213343 L 206.79839207503895,-25.105808482410144 A 121.79977864344055 121.79977864344055 0 0 0 127.25390190026948,-68.98061112098722"/><text text-anchor="middle" pointer-events="none" font-size="8px" fill="#000000" x="109.48389622818085" y="-66.3483661782096" font-family="sans-serif">FLY_TO</text></g><g class="relationship" transform="translate(-97.59406253112807 -7.038632943500851) rotate(352.00394461353176)"><path class="outline" fill="#A5ABB6" stroke="none" d="M 10.396609043987748,-22.74116356711926 L 11.29757791189017,-22.307279828001697 A 112.26299033575769 112.26299033575769 0 0 1 91.81176014336549,-83.9491313079985 L 91.62798384258312,-84.93209940070076 A 113.26299033575769 113.26299033575769 0 0 0 10.396609043987748,-22.74116356711926 Z M 127.11719710419452,-85.90658180054328 L 126.9876388094801,-84.91500999362725 A 112.26299033575769 112.26299033575769 0 0 1 210.76314314750385,-27.784315378604152 L 208.13573836437607,-26.336301530052502 L 214.57974292464564,-21.895039859397976 L 214.26634952500754,-29.715000510006348 L 211.63894474187975,-28.2669866614547 A 113.26299033575769 113.26299033575769 0 0 0 127.11719710419452,-85.90658180054328"/><text text-anchor="middle" pointer-events="none" font-size="8px" fill="#000000" x="109.34789541883211" y="-83.31869810344801" font-family="sans-serif">FLY_TO</text></g><g class="relationship" transform="translate(-97.59406253112807 -7.038632943500851) rotate(533.1668643156271)"><path class="outline" fill="#A5ABB6" stroke="none" d="M 5.987513214418485,-24.277555179777966 L 6.953439040707552,-24.018736134675446 A 114.74341340601804 114.74341340601804 0 0 1 96.9891734827667,-107.16376031076231 L 96.80791783291268,-108.14719632260854 A 115.74341340601804 115.74341340601804 0 0 0 5.987513214418485,-24.277555179777966 Z M 132.29919272397655,-109.15098596305451 L 132.173810839593,-108.15887740897969 A 114.74341340601804 114.74341340601804 0 0 1 226.76499416713335,-30.235603873673764 L 223.91573444530397,-29.296604918636607 L 229.4308683491916,-23.74383101524478 L 230.5640071295725,-31.48760248038997 L 227.71474740774312,-30.548603525352814 A 115.74341340601804 115.74341340601804 0 0 0 132.29919272397655,-109.15098596305451"/><text text-anchor="middle" pointer-events="none" font-size="8px" fill="#000000" x="114.52897157288643" y="-106.51830418971925" transform="rotate(180 114.52897157288643 -109.51830418971925)" font-family="sans-serif">FLY_TO</text></g><g class="relationship" transform="translate(-97.59406253112807 -7.038632943500851) rotate(352.00394461353176)"><path class="outline" fill="#A5ABB6" stroke="none" d="M 5.987513214418485,-24.277555179777966 L 6.953439040707552,-24.018736134675446 A 109.21086827816328 109.21086827816328 0 0 1 91.67381881378851,-102.97066800932264 L 91.48364343348341,-103.95241814287283 A 110.21086827816328 110.21086827816328 0 0 0 5.987513214418485,-24.277555179777966 Z M 126.96677480117634,-105.00258158486315 L 126.83499344597931,-104.01130277725025 A 109.21086827816328 109.21086827816328 0 0 1 216.07633835072272,-30.207965080189037 L 213.2295529685739,-29.261491103798868 L 218.7592418593246,-23.72321151790683 L 219.87205219358782,-31.469930382042598 L 217.025266811439,-30.52345640565243 A 110.21086827816328 110.21086827816328 0 0 0 126.96677480117634,-105.00258158486315"/><text text-anchor="middle" pointer-events="none" font-size="8px" fill="#000000" x="109.19744102373679" y="-102.41573373623211" font-family="sans-serif">FLY_TO</text></g></g><g class="layer nodes"><g class="node" aria-label="graph-node21" transform="translate(-333.16466197781097,21.189643844147298)"><circle class="outline" cx="0" cy="0" r="25" fill="#8DCC93" stroke="#5db665" stroke-width="2px"/><text class="caption" text-anchor="middle" pointer-events="none" x="0" y="5" font-size="10px" fill="#2A2C34" font-family="sans-serif"> MSN</text></g><g class="node" aria-label="graph-node68" transform="translate(126.84892516347045,-38.56628061096329)"><circle class="outline" cx="0" cy="0" r="25" fill="#8DCC93" stroke="#5db665" stroke-width="2px"/><text class="caption" text-anchor="middle" pointer-events="none" x="0" y="5" font-size="10px" fill="#2A2C34" font-family="sans-serif"> GRR</text></g><g class="node" aria-label="graph-node7" transform="translate(-97.59406253112807,-7.038632943500851)"><circle class="outline" cx="0" cy="0" r="25" fill="#8DCC93" stroke="#5db665" stroke-width="2px"/><text class="caption" text-anchor="middle" pointer-events="none" x="0" y="5" font-size="10px" fill="#2A2C34" font-family="sans-serif"> ORD</text></g></g></svg>