<svg xmlns="http://www.w3.org/2000/svg" width="186.46148681640625" height="290.6209411621094" viewBox="-182.86273193359375 -135.23971557617188 186.46148681640625 290.6209411621094"><title>Neo4j Graph Visualization</title><desc>Created using Neo4j (http://www.neo4j.com/)</desc><g class="layer relationships"><g class="relationship" transform="translate(-41.48941329795318 -106.23971693191261) rotate(502.21593309423156)"><path class="outline" fill="#A5ABB6" stroke="none" d="M 21.40063509461097,12.933012701892217 L 21.90063509461097,12.06698729810778 A 95.5786850628222 95.5786850628222 0 0 0 56.52725772744155,23.96140539897091 L 56.38954166773715,24.951877148643504 A 96.5786850628222 96.5786850628222 0 0 1 21.40063509461097,12.933012701892217 Z M 78.46130278066957,25.472970184322705 L 78.37048227354688,24.47710290627508 A 95.5786850628222 95.5786850628222 0 0 0 113.51984422980983,14.23002864177359 L 112.14412327565633,11.564059426590685 L 119.96972589092887,11.464341284612559 L 115.35413883534785,17.784654262017465 L 113.97841788119435,15.11868504683456 A 96.5786850628222 96.5786850628222 0 0 1 78.46130278066957,25.472970184322705"/><text text-anchor="middle" pointer-events="none" font-size="8px" fill="#000000" x="67.4222842509434" y="28.34533773639049" transform="rotate(180 67.4222842509434 25.34533773639049)" font-family="sans-serif">road</text></g><g class="relationship" transform="translate(-153.86273125584847 -19.12407719536793) rotate(438.04076168144854)"><path class="outline" fill="#A5ABB6" stroke="none" d="M 25 0.5 L 61.19878491450915 0.5 L 61.19878491450915 -0.5 L 25 -0.5 Z M 80.53472241450915 0.5 L 116.7335073290183 0.5 L 116.7335073290183 3.5 L 123.7335073290183 0 L 116.7335073290183 -3.5 L 116.7335073290183 -0.5 L 80.53472241450915 -0.5 Z"/><text text-anchor="middle" pointer-events="none" font-size="8px" fill="#000000" x="70.86675366450915" y="3" font-family="sans-serif">trek</text></g><g class="relationship" transform="translate(-123.04280463598178 126.38120905065534) rotate(314.5808652237363)"><path class="outline" fill="#A5ABB6" stroke="none" d="M 25 0.5 L 56.38569782974224 0.5 L 56.38569782974224 -0.5 L 25 -0.5 Z M 75.72163532974224 0.5 L 107.10733315948448 0.5 L 107.10733315948448 3.5 L 114.10733315948448 0 L 107.10733315948448 -3.5 L 107.10733315948448 -0.5 L 75.72163532974224 -0.5 Z"/><text text-anchor="middle" pointer-events="none" font-size="8px" fill="#000000" x="66.05366657974224" y="3" font-family="sans-serif">trek</text></g><g class="relationship" transform="translate(-41.48941329795318 -106.23971693191261) rotate(502.21593309423156)"><path class="outline" fill="#A5ABB6" stroke="none" d="M 25 0.5 L 57.92509925872655 0.5 L 57.92509925872655 -0.5 L 25 -0.5 Z M 77.26103675872655 0.5 L 110.1861360174531 0.5 L 110.1861360174531 3.5 L 117.1861360174531 0 L 110.1861360174531 -3.5 L 110.1861360174531 -0.5 L 77.26103675872655 -0.5 Z"/><text text-anchor="middle" pointer-events="none" font-size="8px" fill="#000000" x="67.59306800872655" y="3" transform="rotate(180 67.59306800872655 0)" font-family="sans-serif">trek</text></g><g class="relationship" transform="translate(-41.48941329795318 -106.23971693191261) rotate(502.21593309423156)"><path class="outline" fill="#A5ABB6" stroke="none" d="M 21.40063509461097,-12.933012701892217 L 21.90063509461097,-12.06698729810778 A 95.5786850628222 95.5786850628222 0 0 1 37.38052682026876,-19.245540944273955 L 37.04248648434537,-20.18667256699672 A 96.5786850628222 96.5786850628222 0 0 0 21.40063509461097,-12.933012701892217 Z M 98.0116808412689,-21.62609656256312 L 97.71843080170972,-20.670060781695824 A 95.5786850628222 95.5786850628222 0 0 1 113.51984422980983,-14.23002864177359 L 112.14412327565633,-11.564059426590685 L 119.96972589092887,-11.464341284612559 L 115.35413883534785,-17.784654262017465 L 113.97841788119435,-15.11868504683456 A 96.5786850628222 96.5786850628222 0 0 0 98.0116808412689,-21.62609656256312"/><text text-anchor="middle" pointer-events="none" font-size="8px" fill="#000000" x="67.42228425094339" y="-22.34533773639049" transform="rotate(180 67.42228425094339 -25.34533773639049)" font-family="sans-serif">PublicTransport</text></g></g><g class="layer nodes"><g class="node" aria-label="graph-node199" transform="translate(-41.48941329795318,-106.23971693191261)"><circle class="outline" cx="0" cy="0" r="25" fill="#57C7E3" stroke="#23b3d7" stroke-width="2px"/><text class="caption" text-anchor="middle" pointer-events="none" x="0" y="5" font-size="10px" fill="#2A2C34" font-family="sans-serif"> Darjeeling</text></g><g class="node" aria-label="graph-node201" transform="translate(-25.401249975404895,27.300550281098367)"><circle class="outline" cx="0" cy="0" r="25" fill="#D9C8AE" stroke="#c0a378" stroke-width="2px"/><text class="caption" text-anchor="middle" pointer-events="none" x="0" y="5" font-size="10px" fill="#2A2C34" font-family="sans-serif"> Sandakp…</text></g><g class="node" aria-label="graph-node198" transform="translate(-153.86273125584847,-19.12407719536793)"><circle class="outline" cx="0" cy="0" r="25" fill="#57C7E3" stroke="#23b3d7" stroke-width="2px"/><text class="caption" text-anchor="middle" pointer-events="none" x="0" y="5" font-size="10px" fill="#2A2C34" font-family="sans-serif"> Rimbik</text></g><g class="node" aria-label="graph-node200" transform="translate(-123.04280463598178,126.38120905065534)"><circle class="outline" cx="0" cy="0" r="25" fill="#F16667" stroke="#eb2728" stroke-width="2px"/><text class="caption" text-anchor="middle" pointer-events="none" x="0" y="5" font-size="10px" fill="#FFFFFF" font-family="sans-serif"> BhikeBh…</text></g></g></svg>