<svg xmlns="http://www.w3.org/2000/svg" width="241.70394897460938" height="369.2557067871094" viewBox="-96.7363510131836 -179.9799346923828 241.70394897460938 369.2557067871094"><title>Neo4j Graph Visualization</title><desc>Created using Neo4j (http://www.neo4j.com/)</desc><g class="layer relationships"><g class="relationship" transform="translate(42.474810495624276 160.2757779592101) rotate(300.7959628199395)"><path class="outline" fill="#A5ABB6" stroke="none" d="M 24.018736134675446,-6.953439040707552 L 24.277555179777966,-5.987513214418485 A 178.13768062820697 178.13768062820697 0 0 1 45.153612035313536,-10.261758926087879 L 45.01198356315389,-11.251678809651054 A 179.13768062820697 179.13768062820697 0 0 0 24.018736134675446,-6.953439040707552 Z M 91.47226676543968,-11.811690104179519 L 91.35454006989056,-10.81864407042525 A 178.13768062820697 178.13768062820697 0 0 1 112.3275564147966,-7.048828208134034 L 111.62117172363867,-4.133177222831142 L 119.24847282902967,-5.8865390929826935 L 113.26940266967384,-10.936362855204557 L 112.5630179785159,-8.020711869901664 A 179.13768062820697 179.13768062820697 0 0 0 91.47226676543968,-11.811690104179519"/><text text-anchor="middle" pointer-events="none" font-size="8px" fill="#000000" x="68.22991796296856" y="-9.544431943186254" font-family="sans-serif">twowheeler</text></g><g class="relationship" transform="translate(42.474810495624276 160.2757779592101) rotate(300.7959628199395)"><path class="outline" fill="#A5ABB6" stroke="none" d="M 24.018736134675446,6.953439040707552 L 24.277555179777966,5.987513214418485 A 178.13768062820697 178.13768062820697 0 0 0 58.603585095083005,11.667523260924213 L 58.537459868572114,12.665334593000011 A 179.13768062820697 179.13768062820697 0 0 1 24.018736134675446,6.953439040707552 Z M 77.91664588140264,12.898922558848227 L 77.87459070753731,11.899807269028685 A 178.13768062820697 178.13768062820697 0 0 0 112.3275564147966,7.048828208134034 L 111.62117172363867,4.133177222831142 L 119.24847282902967,5.8865390929826935 L 113.26940266967384,10.936362855204557 L 112.5630179785159,8.020711869901664 A 179.13768062820697 179.13768062820697 0 0 1 77.91664588140264,12.898922558848227"/><text text-anchor="middle" pointer-events="none" font-size="8px" fill="#000000" x="68.22991796296856" y="15.544431943186254" font-family="sans-serif">trek</text></g><g class="relationship" transform="translate(115.96760436750056 36.9707160187842) rotate(190.37041932388695)"><path class="outline" fill="#A5ABB6" stroke="none" d="M 24.018736134675446,-6.953439040707552 L 24.277555179777966,-5.987513214418485 A 186.67419453881047 186.67419453881047 0 0 1 60.771285685960216,-11.973621566497428 L 60.707960884699716,-12.971614537186753 A 187.67419453881047 187.67419453881047 0 0 0 24.018736134675446,-6.953439040707552 Z M 80.08560114726839,-13.198632965875674 L 80.04567445830571,-12.199430354035371 A 186.67419453881047 186.67419453881047 0 0 1 116.66962968473838,-7.0699310575210355 L 115.96127407343326,-4.154758279119633 L 123.58975876955917,-5.902963427542657 L 117.61410383314521,-10.956828095389572 L 116.90574822184008,-8.04165531698817 A 187.67419453881047 187.67419453881047 0 0 0 80.08560114726839,-13.198632965875674"/><text text-anchor="middle" pointer-events="none" font-size="8px" fill="#000000" x="70.39970620064993" y="-9.835438400062941" transform="rotate(180 70.39970620064993 -12.835438400062941)" font-family="sans-serif">trek</text></g><g class="relationship" transform="translate(115.96760436750056 36.9707160187842) rotate(190.37041932388695)"><path class="outline" fill="#A5ABB6" stroke="none" d="M 24.018736134675446,6.953439040707552 L 24.277555179777966,5.987513214418485 A 186.67419453881047 186.67419453881047 0 0 0 47.31306120963587,10.628704591812067 L 47.17764168468003,11.619492940684182 A 187.67419453881047 187.67419453881047 0 0 1 24.018736134675446,6.953439040707552 Z M 93.64388388442447,12.163867443891462 L 93.53171347132871,11.170178459135201 A 186.67419453881047 186.67419453881047 0 0 0 116.66962968473838,7.0699310575210355 L 115.96127407343326,4.154758279119633 L 123.58975876955917,5.902963427542657 L 117.61410383314521,10.956828095389572 L 116.90574822184008,8.04165531698817 A 187.67419453881047 187.67419453881047 0 0 1 93.64388388442447,12.163867443891462"/><text text-anchor="middle" pointer-events="none" font-size="8px" fill="#000000" x="70.39970620064996" y="15.835438400062941" transform="rotate(180 70.39970620064996 12.835438400062941)" font-family="sans-serif">twowheeler</text></g><g class="relationship" transform="translate(115.96760436750056 36.9707160187842) rotate(250.60540484875588)"><path class="outline" fill="#A5ABB6" stroke="none" d="M 24.018736134675446,-6.953439040707552 L 24.277555179777966,-5.987513214418485 A 185.2762628586111 185.2762628586111 0 0 1 46.95919010798025,-10.569068221475106 L 46.82279168264979,-11.55972228297557 A 186.2762628586111 186.2762628586111 0 0 0 24.018736134675446,-6.953439040707552 Z M 93.28813168994986,-12.106599132315836 L 93.1750869533109,-11.113009233253734 A 185.2762628586111 185.2762628586111 0 0 1 115.95826979463976,-7.0665553638133645 L 115.25022945789675,-4.1513059951409605 L 122.87852504433253,-5.900336139525077 L 116.90232357696377,-10.953554522043236 L 116.19428324022076,-8.038305153370832 A 186.2762628586111 186.2762628586111 0 0 0 93.28813168994986,-12.106599132315836"/><text text-anchor="middle" pointer-events="none" font-size="8px" fill="#000000" x="70.04422619692161" y="-9.787783004671013" transform="rotate(180 70.04422619692161 -12.787783004671013)" font-family="sans-serif">twowheeler</text></g><g class="relationship" transform="translate(115.96760436750056 36.9707160187842) rotate(250.60540484875588)"><path class="outline" fill="#A5ABB6" stroke="none" d="M 24.018736134675446,6.953439040707552 L 24.277555179777966,5.987513214418485 A 185.2762628586111 185.2762628586111 0 0 0 60.41613325775183,11.923581193801851 L 60.35236660371331,12.921546029771918 A 186.2762628586111 186.2762628586111 0 0 1 24.018736134675446,6.953439040707552 Z M 79.73025284838573,13.14961532561037 L 79.68999182897142,12.150426129153715 A 185.2762628586111 185.2762628586111 0 0 0 115.95826979463976,7.0665553638133645 L 115.25022945789675,4.1513059951409605 L 122.87852504433253,5.900336139525077 L 116.90232357696377,10.953554522043236 L 116.19428324022076,8.038305153370832 A 186.2762628586111 186.2762628586111 0 0 1 79.73025284838573,13.14961532561037"/><text text-anchor="middle" pointer-events="none" font-size="8px" fill="#000000" x="70.04422619692166" y="15.787783004671013" transform="rotate(180 70.04422619692166 12.787783004671013)" font-family="sans-serif">trek</text></g><g class="relationship" transform="translate(67.09579173990619 -101.85011427570971) rotate(200.020612300528)"><path class="outline" fill="#A5ABB6" stroke="none" d="M 24.018736134675446,6.953439040707552 L 24.277555179777966,5.987513214418485 A 178.05616523357205 178.05616523357205 0 0 0 58.582898075039736,11.66459403795028 L 58.51674488259253,12.662403516322286 A 179.05616523357205 179.05616523357205 0 0 1 24.018736134675446,6.953439040707552 Z M 77.89594617189155,12.896056012862772 L 77.85386962947307,11.896941622726132 A 178.05616523357205 178.05616523357205 0 0 0 112.28611591489953,7.048620926017076 L 111.57975058315564,4.1329652505110746 L 119.20704004637084,5.886377764532355 L 113.22793635722469,10.936161826691745 L 112.52157102548081,8.020506151185744 A 179.05616523357205 179.05616523357205 0 0 1 77.89594617189155,12.896056012862772"/><text text-anchor="middle" pointer-events="none" font-size="8px" fill="#000000" x="68.2092099574415" y="15.541653148736884" transform="rotate(180 68.2092099574415 12.541653148736884)" font-family="sans-serif">trek</text></g><g class="relationship" transform="translate(67.09579173990619 -101.85011427570971) rotate(200.020612300528)"><path class="outline" fill="#A5ABB6" stroke="none" d="M 24.018736134675446,-6.953439040707552 L 24.277555179777966,-5.987513214418485 A 178.05616523357205 178.05616523357205 0 0 1 45.13300898016652,-10.258221725601715 L 44.99131844770511,-11.24813272817255 A 179.05616523357205 179.05616523357205 0 0 0 24.018736134675446,-6.953439040707552 Z M 91.4515392465336,-11.808297536691413 L 91.33375688825024,-10.815258103397241 A 178.05616523357205 178.05616523357205 0 0 1 112.28611591489953,-7.048620926017076 L 111.57975058315564,-4.1329652505110746 L 119.20704004637084,-5.886377764532355 L 113.22793635722469,-10.936161826691745 L 112.52157102548081,-8.020506151185744 A 179.05616523357205 179.05616523357205 0 0 0 91.4515392465336,-11.808297536691413"/><text text-anchor="middle" pointer-events="none" font-size="8px" fill="#000000" x="68.20920995744152" y="-9.541653148736884" transform="rotate(180 68.20920995744152 -12.541653148736884)" font-family="sans-serif">twowheeler</text></g><g class="relationship" transform="translate(-29.499525990291986 10.350125832548972) rotate(310.7257854113524)"><path class="outline" fill="#A5ABB6" stroke="none" d="M 21.40063509461097,12.933012701892217 L 21.90063509461097,12.06698729810778 A 101.556262317459 101.556262317459 0 0 0 60.77957651639032,24.97343262609931 L 60.662408067439785,25.966544681494128 A 102.556262317459 102.556262317459 0 0 1 21.40063509461097,12.933012701892217 Z M 80.0590268552585,26.407048837218554 L 79.98706381336181,25.40964153796665 A 101.556262317459 101.556262317459 0 0 0 119.41183926863475,14.28150164920325 L 118.03133140189554,11.618008073113538 L 125.85674225730062,11.504232222826715 L 121.25251642428704,17.832826417322863 L 119.87200855754783,15.169332841233153 A 102.556262317459 102.556262317459 0 0 1 80.0590268552585,26.407048837218554"/><text text-anchor="middle" pointer-events="none" font-size="8px" fill="#000000" x="70.36162947151722" y="29.146638424114755" font-family="sans-serif">trek</text></g><g class="relationship" transform="translate(-29.499525990291986 10.350125832548972) rotate(310.7257854113524)"><path class="outline" fill="#A5ABB6" stroke="none" d="M 25 0.5 L 59.520401654024084 0.5 L 59.520401654024084 -0.5 L 25 -0.5 Z M 81.53212040402408 0.5 L 116.05252205804817 0.5 L 116.05252205804817 3.5 L 123.05252205804817 0 L 116.05252205804817 -3.5 L 116.05252205804817 -0.5 L 81.53212040402408 -0.5 Z"/><text text-anchor="middle" pointer-events="none" font-size="8px" fill="#000000" x="70.52626102902408" y="3" font-family="sans-serif">road</text></g><g class="relationship" transform="translate(-29.499525990291986 10.350125832548972) rotate(310.7257854113524)"><path class="outline" fill="#A5ABB6" stroke="none" d="M 21.40063509461097,-12.933012701892217 L 21.90063509461097,-12.06698729810778 A 101.556262317459 101.556262317459 0 0 1 47.51893321729507,-22.507015132424343 L 47.27119041481386,-23.475840970136545 A 102.556262317459 102.556262317459 0 0 0 21.40063509461097,-12.933012701892217 Z M 93.54950953816093,-24.526838162831723 L 93.34600423469915,-23.547764319108524 A 101.556262317459 101.556262317459 0 0 1 119.41183926863475,-14.28150164920325 L 118.03133140189554,-11.618008073113538 L 125.85674225730062,-11.504232222826715 L 121.25251642428704,-17.832826417322863 L 119.87200855754783,-15.169332841233153 A 102.556262317459 102.556262317459 0 0 0 93.54950953816093,-24.526838162831723"/><text text-anchor="middle" pointer-events="none" font-size="8px" fill="#000000" x="70.36162947151719" y="-23.146638424114755" font-family="sans-serif">twowheeler</text></g></g><g class="layer nodes"><g class="node" aria-label="graph-node198" transform="translate(42.474810495624276,160.2757779592101)"><circle class="outline" cx="0" cy="0" r="25" fill="#57C7E3" stroke="#23b3d7" stroke-width="2px"/><text class="caption" text-anchor="middle" pointer-events="none" x="0" y="5" font-size="10px" fill="#2A2C34" font-family="sans-serif"> Rimbik</text></g><g class="node" aria-label="graph-node202" transform="translate(115.96760436750056,36.9707160187842)"><circle class="outline" cx="0" cy="0" r="25" fill="#F16667" stroke="#eb2728" stroke-width="2px"/><text class="caption" text-anchor="middle" pointer-events="none" x="0" y="5" font-size="10px" fill="#FFFFFF" font-family="sans-serif"> Sirikhola</text></g><g class="node" aria-label="graph-node203" transform="translate(67.09579173990619,-101.85011427570971)"><circle class="outline" cx="0" cy="0" r="25" fill="#F16667" stroke="#eb2728" stroke-width="2px"/><text class="caption" text-anchor="middle" pointer-events="none" x="0" y="5" font-size="10px" fill="#FFFFFF" font-family="sans-serif"> Gurdum</text></g><g class="node" aria-label="graph-node201" transform="translate(-67.7363526430452,-150.97994067865076)"><circle class="outline" cx="0" cy="0" r="25" fill="#D9C8AE" stroke="#c0a378" stroke-width="2px"/><text class="caption" text-anchor="middle" pointer-events="none" x="0" y="5" font-size="10px" fill="#2A2C34" font-family="sans-serif"> Sandakp…</text></g><g class="node" aria-label="graph-node206" transform="translate(-29.499525990291986,10.350125832548972)"><circle class="outline" cx="0" cy="0" r="25" fill="#F16667" stroke="#eb2728" stroke-width="2px"/><text class="caption" text-anchor="middle" pointer-events="none" x="0" y="5" font-size="10px" fill="#FFFFFF" font-family="sans-serif"> Rammam</text></g></g></svg>