<svg xmlns="http://www.w3.org/2000/svg" width="349.80059814453125" height="338.04144287109375" viewBox="-174.8748779296875 -152.6259307861328 349.80059814453125 338.04144287109375"><title>Neo4j Graph Visualization</title><desc>Created using Neo4j (http://www.neo4j.com/)</desc><g class="layer relationships"><g class="relationship" transform="translate(74.42855953954478 149.66817165470354) rotate(239.04251970110124)"><path class="outline" fill="#A5ABB6" stroke="none" d="M 25 0.5 L 47.138023856993215 0.5 L 47.138023856993215 -0.5 L 25 -0.5 Z M 92.70052385699321 0.5 L 114.83854771398643 0.5 L 114.83854771398643 3.5 L 121.83854771398643 0 L 114.83854771398643 -3.5 L 114.83854771398643 -0.5 L 92.70052385699321 -0.5 Z"/><text text-anchor="middle" pointer-events="none" font-size="8px" fill="#000000" x="69.91927385699321" y="3" transform="rotate(180 69.91927385699321 0)" font-family="sans-serif">ACTED_IN</text></g><g class="relationship" transform="translate(145.92572281254292 34.941290516078595) rotate(184.35388867128802)"><path class="outline" fill="#A5ABB6" stroke="none" d="M 25 0.5 L 46.783044690773295 0.5 L 46.783044690773295 -0.5 L 25 -0.5 Z M 93.6736696907733 0.5 L 115.45671438154659 0.5 L 115.45671438154659 3.5 L 122.45671438154659 0 L 115.45671438154659 -3.5 L 115.45671438154659 -0.5 L 93.6736696907733 -0.5 Z"/><text text-anchor="middle" pointer-events="none" font-size="8px" fill="#000000" x="70.2283571907733" y="3" transform="rotate(180 70.2283571907733 0)" font-family="sans-serif">DIRECTED</text></g><g class="relationship" transform="translate(106.64581906726254 -76.78101446608709) rotate(496.9862927468538)"><path class="outline" fill="#A5ABB6" stroke="none" d="M 25 0.5 L 47.40082928437624 0.5 L 47.40082928437624 -0.5 L 25 -0.5 Z M 92.96332928437624 0.5 L 115.36415856875249 0.5 L 115.36415856875249 3.5 L 122.36415856875249 0 L 115.36415856875249 -3.5 L 115.36415856875249 -0.5 L 92.96332928437624 -0.5 Z"/><text text-anchor="middle" pointer-events="none" font-size="8px" fill="#000000" x="70.18207928437624" y="3" transform="rotate(180 70.18207928437624 0)" font-family="sans-serif">ACTED_IN</text></g><g class="relationship" transform="translate(-2.0166324905617943 -123.62593084292314) rotate(449.6457565726224)"><path class="outline" fill="#A5ABB6" stroke="none" d="M 25 0.5 L 52.3010955334494 0.5 L 52.3010955334494 -0.5 L 25 -0.5 Z M 88.0745330334494 0.5 L 115.3756285668988 0.5 L 115.3756285668988 3.5 L 122.3756285668988 0 L 115.3756285668988 -3.5 L 115.3756285668988 -0.5 L 88.0745330334494 -0.5 Z"/><text text-anchor="middle" pointer-events="none" font-size="8px" fill="#000000" x="70.1878142834494" y="3" font-family="sans-serif">WROTE</text></g><g class="relationship" transform="translate(-108.49587358412707 -77.37204393005084) rotate(403.27719128114313)"><path class="outline" fill="#A5ABB6" stroke="none" d="M 25 0.5 L 52.3658041924966 0.5 L 52.3658041924966 -0.5 L 25 -0.5 Z M 88.1392416924966 0.5 L 115.5050458849932 0.5 L 115.5050458849932 3.5 L 122.5050458849932 0 L 115.5050458849932 -3.5 L 115.5050458849932 -0.5 L 88.1392416924966 -0.5 Z"/><text text-anchor="middle" pointer-events="none" font-size="8px" fill="#000000" x="70.2525229424966" y="3" font-family="sans-serif">WROTE</text></g><g class="relationship" transform="translate(-145.87487581579526 48.478642647782) rotate(350.3054329259585)"><path class="outline" fill="#A5ABB6" stroke="none" d="M 25 0.5 L 52.04666038923254 0.5 L 52.04666038923254 -0.5 L 25 -0.5 Z M 87.82009788923254 0.5 L 114.86675827846508 0.5 L 114.86675827846508 3.5 L 121.86675827846508 0 L 114.86675827846508 -3.5 L 114.86675827846508 -0.5 L 87.82009788923254 -0.5 Z"/><text text-anchor="middle" pointer-events="none" font-size="8px" fill="#000000" x="69.93337913923254" y="3" font-family="sans-serif">WROTE</text></g><g class="relationship" transform="translate(-63.486508671326774 156.41551476105008) rotate(295.1830016347673)"><path class="outline" fill="#A5ABB6" stroke="none" d="M 25 0.5 L 47.02011768375053 0.5 L 47.02011768375053 -0.5 L 25 -0.5 Z M 92.58261768375053 0.5 L 114.60273536750105 0.5 L 114.60273536750105 3.5 L 121.60273536750105 0 L 114.60273536750105 -3.5 L 114.60273536750105 -0.5 L 92.58261768375053 -0.5 Z"/><text text-anchor="middle" pointer-events="none" font-size="8px" fill="#000000" x="69.80136768375053" y="3" font-family="sans-serif">ACTED_IN</text></g></g><g class="layer nodes"><g class="node" aria-label="graph-node155" transform="translate(-1.1054569099110167,23.74688094591985)"><circle class="outline" cx="0" cy="0" r="25" fill="#F79767" stroke="#f36924" stroke-width="2px"/><text class="caption" text-anchor="middle" pointer-events="none" x="0" y="-5" font-size="10px" fill="#FFFFFF" font-family="sans-serif"> Captain</text><text class="caption" text-anchor="middle" pointer-events="none" x="0" y="5" font-size="10px" fill="#FFFFFF" font-family="sans-serif"> America:</text><text class="caption" text-anchor="middle" pointer-events="none" x="0" y="15" font-size="10px" fill="#FFFFFF" font-family="sans-serif"> Th</text></g><g class="node" aria-label="graph-node167" transform="translate(74.42855953954478,149.66817165470354)"><circle class="outline" cx="0" cy="0" r="25" fill="#C990C0" stroke="#b261a5" stroke-width="2px"/><text class="caption" text-anchor="middle" pointer-events="none" x="0" y="0" font-size="10px" fill="#FFFFFF" font-family="sans-serif"> Hugo</text><text class="caption" text-anchor="middle" pointer-events="none" x="0" y="10" font-size="10px" fill="#FFFFFF" font-family="sans-serif"> Weavi…</text></g><g class="node" aria-label="graph-node179" transform="translate(145.92572281254292,34.941290516078595)"><circle class="outline" cx="0" cy="0" r="25" fill="#C990C0" stroke="#b261a5" stroke-width="2px"/><text class="caption" text-anchor="middle" pointer-events="none" x="0" y="0" font-size="10px" fill="#FFFFFF" font-family="sans-serif"> Joe</text><text class="caption" text-anchor="middle" pointer-events="none" x="0" y="10" font-size="10px" fill="#FFFFFF" font-family="sans-serif"> Johnst…</text></g><g class="node" aria-label="graph-node184" transform="translate(106.64581906726254,-76.78101446608709)"><circle class="outline" cx="0" cy="0" r="25" fill="#C990C0" stroke="#b261a5" stroke-width="2px"/><text class="caption" text-anchor="middle" pointer-events="none" x="0" y="0" font-size="10px" fill="#FFFFFF" font-family="sans-serif"> Samuel L.</text><text class="caption" text-anchor="middle" pointer-events="none" x="0" y="10" font-size="10px" fill="#FFFFFF" font-family="sans-serif"> Jackson</text></g><g class="node" aria-label="graph-node182" transform="translate(-2.0166324905617943,-123.62593084292314)"><circle class="outline" cx="0" cy="0" r="25" fill="#C990C0" stroke="#b261a5" stroke-width="2px"/><text class="caption" text-anchor="middle" pointer-events="none" x="0" y="0" font-size="10px" fill="#FFFFFF" font-family="sans-serif"> Joe</text><text class="caption" text-anchor="middle" pointer-events="none" x="0" y="10" font-size="10px" fill="#FFFFFF" font-family="sans-serif"> Simon</text></g><g class="node" aria-label="graph-node181" transform="translate(-108.49587358412707,-77.37204393005084)"><circle class="outline" cx="0" cy="0" r="25" fill="#C990C0" stroke="#b261a5" stroke-width="2px"/><text class="caption" text-anchor="middle" pointer-events="none" x="0" y="0" font-size="10px" fill="#FFFFFF" font-family="sans-serif"> Stephen</text><text class="caption" text-anchor="middle" pointer-events="none" x="0" y="10" font-size="10px" fill="#FFFFFF" font-family="sans-serif"> McFe…</text></g><g class="node" aria-label="graph-node180" transform="translate(-145.87487581579526,48.478642647782)"><circle class="outline" cx="0" cy="0" r="25" fill="#C990C0" stroke="#b261a5" stroke-width="2px"/><text class="caption" text-anchor="middle" pointer-events="none" x="0" y="5" font-size="10px" fill="#FFFFFF" font-family="sans-serif"> Christop…</text></g><g class="node" aria-label="graph-node183" transform="translate(-63.486508671326774,156.41551476105008)"><circle class="outline" cx="0" cy="0" r="25" fill="#C990C0" stroke="#b261a5" stroke-width="2px"/><text class="caption" text-anchor="middle" pointer-events="none" x="0" y="0" font-size="10px" fill="#FFFFFF" font-family="sans-serif"> Chris</text><text class="caption" text-anchor="middle" pointer-events="none" x="0" y="10" font-size="10px" fill="#FFFFFF" font-family="sans-serif"> Evans</text></g></g></svg>